Patient4_TMGait_0pt6_01_right_03_EMG.mot
version=1
nRows=37
nColumns=33
inDegrees=no
endheader
time	1LAddLong	2LGlutMax	3LGlutMed	4LIliopsoas	5LSemiMemb	6LBicFemLong	7LRecFem	8LVastMed	9LVastLat	10LGasMed	11LTibAnt	12lTibPost	13LPeroneusLong	14LSol	15LExtDigLong	16LFlexDigLong	17RAddLong	18RGlutMax	19RGlutMed	20RIliopsoas	21RSemiMemb	22RBicFemLong	23RRecFem	24RVastMed	25RVastLat	26RGasMed	27RTibAnt	28RTibPost	29RPeroneusLong	30RSol	31RExtDigLong	32RFlexDigLong
3.425	0.066376	-0.31418	-0.042572	0.023651	0.00473	-0.033417	0.07782	0.00061	0.21332	-0.04303	0.22278	0.001526	-0.09613	0.11688	0.90454	-0.017242	-0.058594	-0.80826	-0.92575	0.059662	0.065613	-0.1181	-0.095673	0.22583	-0.049286	-0.023041	-0.009003	0.28259	0.24674	-0.97473	0.000763	-0.007324
3.426	0.041809	-0.35645	-0.053864	0.006104	-0.001678	-0.02243	0.10941	-0.002747	0.20477	-0.066528	0.14603	0.006256	-0.089111	0.035553	-0.78339	-0.017395	-0.04425	-0.7666	-0.85861	0.016174	-0.004578	0.1445	0.023804	0.13687	-0.087433	-0.053101	-0.10834	0.27573	0.66238	-0.23682	0.001831	-0.005798
3.427	-0.012817	-0.40085	-0.044403	-0.001984	0.00412	-0.030823	0.079193	0.003815	0.21957	-0.048676	0.16159	0.001221	-0.092621	-0.039215	-0.13123	-0.012207	-0.01709	-0.61478	-0.68558	0.014038	0.22522	0.33035	0.14374	-0.010834	-0.13214	-0.080261	-0.029755	0.19806	0.29907	0.7605	0.000763	-0.018921
3.428	-0.02655	-0.43686	-0.045776	0.008087	-0.007019	-0.036926	0.16403	0.000916	0.21149	-0.040588	0.1738	-0.003662	-0.11154	-0.025177	0.20813	0.002594	-0.015869	-0.43594	-0.60669	-0.027466	0.000763	0.22171	0.20828	-0.048828	-0.15762	-0.1004	-0.006104	0.2214	-0.25314	1.116	-0.001678	-0.009766
3.429	0.005646	-0.48752	-0.023193	-0.015717	0.000916	-0.024872	0.19104	0.002289	0.18631	-0.055847	0.056152	-0.005951	-0.11429	0.027618	0.19928	-0.010376	-0.010529	-0.37964	-0.51178	-0.035248	-0.32867	0.077362	0.103	-0.036316	-0.14023	-0.16922	-0.018158	0.10284	-0.10254	0.88592	0.002136	-0.001221
3.43	-0.009308	-0.4483	-0.022888	-0.010834	-0.004425	-0.015259	0.23025	0.008698	0.18494	-0.089569	-0.15213	-0.001831	-0.02182	0.14343	0.081329	-0.01709	0.018005	-0.3363	0.11414	-0.009003	-0.3804	-0.02655	-0.13611	-0.009613	-0.12116	-0.059204	-0.064697	-0.020447	0.058289	0.88211	-0.000153	0.001373
3.431	-0.005341	-0.46951	-0.06134	-0.016785	-0.001526	-0.012512	0.30838	0.003204	0.18478	-0.068665	-0.20615	-0.003052	-0.011292	0.13184	-0.048065	-0.016174	0.033722	-0.27893	0.18143	-0.11566	-0.31265	0.015411	-0.30075	0.006104	-0.04425	0.018921	-0.009766	-0.087738	0.224	0.94559	0.001678	-0.007629
3.432	-0.010223	-0.44723	-0.034637	-0.024719	-0.00412	0.010681	0.30624	0.011749	0.19806	-0.003052	-0.34149	-0.005798	-0.095062	0.061951	-0.1059	-0.028992	0.053864	-0.39139	0.1033	-0.064545	0.13458	0.039215	-0.30441	0.058289	-0.021057	0.041351	-0.035248	-0.050964	0.30289	1.1331	0.003815	-0.010071
3.433	-0.016022	-0.45029	-0.035858	0.019226	-0.003815	0.005035	0.26382	0.000458	0.1976	-0.01709	-0.15778	-0.002136	-0.0914	0.11368	-0.17334	-0.041199	0.009613	-0.38727	-0.36728	-0.012512	0.42633	0.069885	-0.31921	0.077057	-0.001984	0.01709	-0.012054	-0.023346	0.35355	0.57083	0.004578	-0.046234
3.434	-0.002899	-0.43549	-0.033875	0.021362	-0.008545	0.00412	0.23712	0.006409	0.17303	-0.014648	0.014191	0.001221	-0.11948	0.073547	-0.32425	-0.025482	-0.085449	-0.37262	-0.10605	0.006256	0.02243	0.024414	-0.27008	0.21561	0.059357	0.009155	0.01709	0.082092	0.27191	0.10651	0.002441	-0.043945
3.435	-0.012054	-0.41565	-0.037079	-0.010834	-0.006104	0.016632	0.11841	0.013428	0.17563	-0.030212	-0.042877	0.000763	-0.12146	0.054016	-0.42389	-0.033875	-0.039368	-0.4042	-0.12802	0.030518	-0.073242	-0.12177	0.023193	0.087433	-0.020142	0.026398	0.010376	-0.004578	0.20371	0.23025	0.003052	-0.048218
3.436	-0.010071	-0.33585	-0.032501	-0.020447	-0.003662	0.007629	-0.066528	0.022736	0.15366	-0.032959	-0.094452	0.005493	-0.094757	-0.10315	-0.47348	-0.046692	-0.020142	-0.35172	-0.020294	0.032349	-0.34409	-0.12665	0.069885	-0.051117	-0.062714	0.023651	0.035858	0.011292	0.071869	0.16571	0.001526	-0.042419
3.437	-0.006866	-0.34439	-0.03006	-0.009766	-0.007172	0.040588	0.022736	0.014954	0.15732	-0.02243	-0.026855	0.003815	-0.092316	-0.22964	-0.31967	-0.035706	-0.015564	-0.41031	-0.096436	0.000305	-0.21133	-0.15396	0.094757	-0.0737	-0.083618	0.015259	0.047455	-0.02121	-0.086975	-0.060577	-0.004883	-0.035553
3.438	0.001221	-0.34866	-0.030518	0	-0.004883	0.012665	0.040131	0.011749	0.13199	-0.027161	-0.036163	0.004272	-0.071869	-0.17517	0.17151	-0.018768	0.00824	-0.4982	-0.22995	0.031586	0.12253	-0.32044	0.067596	-0.006561	-0.016022	0.002899	0.050049	-0.099182	-0.18967	-0.04837	0.001068	-0.036163
3.439	-0.001068	-0.35065	-0.036774	-0.019531	-0.007324	0.02594	-0.064087	0.01297	0.13062	-0.023956	-0.011902	0.006256	-0.046997	-0.069275	0.43213	-0.017242	-0.035706	-0.5545	-0.22186	0.036316	0.298	-0.33157	0.044098	0.12726	0.030212	-0.049896	0.046692	-0.36133	-0.20493	-0.12116	0.001984	-0.036316
3.44	0.001984	-0.38818	-0.038605	-0.019226	-0.011444	0.013885	-0.20645	0.007477	0.11993	-0.027466	-0.05249	0.003662	-0.036316	-0.11536	0.53024	-0.00946	-0.024872	-0.55634	-0.32715	0.041504	0.065918	-0.23972	0.13168	0.042267	-0.008545	-0.086975	0.042572	0.2095	-0.097504	-0.21698	0.003357	-0.038452
3.441	0.007477	-0.46616	-0.041199	0.009155	-0.005035	0.016937	-0.17319	0.008392	0.13351	-0.010071	-0.12146	0.010223	-0.082397	-0.11902	0.28595	-0.003815	0.003357	-0.73852	-0.30823	0.027771	-0.10468	-0.15579	0.21927	-0.10056	-0.069275	-0.099792	0.015869	0.16357	-0.008392	-0.30518	-0.004272	-0.036011
3.442	0.001831	-0.49332	-0.059662	0.000763	-0.002899	0.003204	0.004425	0.010529	0.13519	-0.0177	-0.11581	-0.006409	-0.12756	-0.063934	0.25635	-0.006561	0.026703	-0.84976	-0.33783	0.023346	-0.36514	-0.26688	0.29098	-0.18936	-0.079193	-0.13092	0.028687	0.00061	0.052795	-0.21576	0	-0.034027
3.443	-0.001831	-0.51666	-0.086975	0.003357	-0.002747	0.018768	0.15854	0.004425	0.13168	-0.007782	-0.11917	0.005493	-0.11917	0.035706	0.59753	-0.000153	0.048981	-1.0651	-0.40405	0.019989	-0.64453	-0.24445	0.3479	-0.14755	-0.077667	-0.082397	0.014954	-0.046082	0.11063	-0.090179	0.002289	-0.022278
3.444	-0.008392	-0.54306	-0.046844	-0.039978	0.007629	0.010071	0.18341	0.001221	0.11749	-0.007477	-0.022278	0.007477	-0.1619	0.1001	0.33554	-0.003357	0.041962	-1.3458	-0.42633	-0.045013	-0.12955	-0.17288	0.41184	-0.017242	-0.058441	-0.028687	0.009003	-0.089264	0.21133	-0.10056	-0.003052	-0.0177
3.445	-0.013733	-0.55283	-0.024567	-0.028076	0.004578	0.011902	0.23239	0.003815	0.13641	-0.000305	0.060272	0.006256	-0.18906	0.12833	0.20294	0.010223	0.022736	-1.571	-0.33585	-0.13443	0.14481	-0.052795	0.55374	0.056915	-0.049133	-0.044861	0.003052	-0.24628	0.10284	-0.41184	0.001984	-0.011597
3.446	-0.019073	-0.55237	-0.022125	-0.027313	0.012512	-0.000763	0.29022	0.00412	0.14389	-0.008392	0.046387	0.007172	-0.088806	0.12497	-0.42404	0.010986	0.011749	-1.713	-0.33005	-0.17502	0.20508	-0.11734	0.66269	0.04776	-0.066376	-0.064545	-0.013733	-0.40909	-0.056152	-0.3714	-0.001221	-0.020905
3.447	-0.020599	-0.56381	-0.03891	-0.031738	0.000763	0.001221	0.30533	0.004578	0.12665	-0.023804	0.02594	0.005646	0.039978	0.066071	-0.31647	-0.002899	-0.026245	-1.794	-0.41672	-0.10376	0.28305	-0.1152	0.68771	0.096893	-0.048676	-0.058441	-0.042419	-0.028534	-0.16098	-0.49332	-0.002289	-0.022278
3.448	-0.016937	-0.63477	-0.082245	-0.016632	0.010223	-0.008698	0.28763	0.006104	0.11551	0.004883	0.12726	0.000153	0.024567	0.061646	0.005951	0.004425	-0.11078	-1.7638	-0.47699	-0.016022	0.24246	-0.031128	0.61386	0.1329	-0.035858	-0.066986	-0.081329	0.21286	0.003204	-0.56305	-0.000305	-0.022888
3.449	-0.010223	-0.65033	-0.091095	0.005035	0.012054	0.007629	0.3122	-0.001526	0.10757	0.038605	0.14542	0.001831	-0.1001	-0.006104	0.31113	0.003204	-0.12924	-1.9478	-0.43869	-0.000305	0.052338	0.15747	0.32913	0.015106	-0.072327	0.000763	-0.066376	0.19089	0.15701	-0.56854	-0.001221	-0.011902
3.45	-0.013275	-0.64804	-0.11002	0.000153	0.007629	0.002441	0.16907	0.003662	0.10101	0.027466	-0.13489	0.00351	-0.11047	0.010376	0.2066	0.000763	-0.097961	-1.9615	-0.02243	0.029755	0.10101	0.17334	-0.065155	-0.007019	-0.09613	0.19241	-0.014648	0.032349	0.1622	-0.15442	-0.00061	-0.014954
3.451	-0.009003	-0.6192	-0.080261	0.017395	0.008545	0.006256	0.038147	-0.004578	0.093994	0.035553	-0.2272	0.002136	-0.09491	0.05661	0.29144	0.009308	-0.058289	-1.7001	0.14725	0.13428	0.22629	-0.032654	-0.38574	0.11414	0.037079	0.2356	-0.00946	0.35645	0.21683	0.38284	0.000916	-0.018311
3.452	0.003204	-0.5864	-0.050049	0.037689	0.012665	0.012207	-0.071869	0.012207	0.078278	0.018311	-0.19455	0.001373	-0.09201	0.11444	0.29205	0.008087	-0.03479	-1.6528	-0.041504	0.21133	0.19562	-0.36758	-0.40604	0.043335	0.089111	0.085754	0.010376	0.075531	-0.017853	0.13565	0.000458	-0.022583
3.453	-0.002136	-0.59128	-0.048218	0.021667	0.005951	0.00946	-0.076141	-0.000153	0.053864	-0.024109	-0.11734	0.005493	-0.045319	0.14038	0.25177	0.008087	-0.006409	-1.5778	0.11322	0.2092	0.09613	-0.44586	-0.17761	0.00824	0.065002	0.002747	0.05661	-0.15869	-0.40817	-0.6041	-0.00412	-0.018921
3.454	-0.00351	-0.56763	-0.058289	-0.000763	0.010376	0.021973	-0.05249	0.003662	0.033112	0.00885	-0.11154	0.006256	-0.029907	0.061798	-0.56778	0.00946	0.015869	-1.59	-0.30045	0.15396	-0.070801	-0.27481	0.035706	0.069733	-0.023041	-0.056458	0.066528	-0.05127	-0.44128	-0.84076	-0.002441	-0.011444
3.455	-0.00412	-0.53787	-0.037231	0.012512	0.012817	0.021515	-0.095215	0.007324	0.019989	0.02243	0.10696	-0.000305	-0.026855	0.092316	-0.56351	0.00824	0.032501	-1.8048	-0.37781	0.13245	-0.09613	-0.14542	0.10101	0.11475	-0.041504	0.042114	0.060883	0.084991	-0.3688	-0.23315	0.002747	-0.026855
3.456	0.00061	-0.43228	-0.078125	0.014191	0.009613	0.006561	-0.25436	0.009613	0.006104	0.024872	0.30106	0.000763	-0.075989	0.092316	-0.42267	0.014954	0.021667	-1.8333	-0.49439	0.010071	-0.3891	0.070496	0.096283	0.18631	-0.036774	0.083771	0.04715	0.020752	-0.001526	0.36606	-0.00473	-0.024719
3.457	-0.000916	-0.34134	-0.12009	-0.023651	0.001068	-0.002136	-0.34164	0.013123	0.026703	0.049286	0.29923	-0.002899	-0.103	-0.057831	-0.14771	-0.002136	0.001831	-1.8523	-0.82382	0.018311	-0.23056	0.008392	0.089264	0.15778	-0.042572	0.056	-0.009003	0.031738	0.298	0.87341	-0.00061	-0.028381
3.458	0.00351	-0.21103	-0.095367	-0.04364	0.006866	-0.016174	-0.42404	0.019379	0.028229	0.051575	0.13702	0.004425	-0.10681	-0.10101	0.58487	0.012665	0.005951	-1.7824	-0.5864	0.043182	0.034943	0.10681	0.13306	-0.005798	-0.099182	0.031281	-0.025177	0.000305	0.28549	0.86044	0.001373	-0.022583
3.459	-0.001068	-0.15427	-0.068665	-0.016174	0.012207	0.00351	-0.28961	0.011597	0.006714	0.044403	0.035553	-0.006104	-0.076752	-0.03067	0.26169	0.004578	0.034332	-1.7618	-0.37399	0.038605	0.067596	0.42252	0.1474	-0.06012	-0.17014	0.013733	0.00885	-0.037537	0.10498	0.53848	0.006866	-0.032043
3.46	0.001221	-0.17792	-0.081177	-0.045166	0.004578	0.00885	-0.19363	0.011597	0.027008	0.065613	0.033875	0.005341	-0.084534	-0.045166	0.48706	-0.00061	0.028534	-1.7691	-0.70129	0.058746	0.12711	0.59341	0.13123	-0.07782	-0.20996	0.008087	0.025482	-0.041046	0.062866	0.25681	0.007477	-0.036316
3.461	-0.005798	-0.17166	-0.06073	0.006409	0.014191	-0.011749	-0.27893	0.012817	0.010986	0.063019	0.15121	0.004578	-0.10986	-0.046997	-0.44891	0.006256	-0.033569	-1.6457	-0.39642	0.032043	0.11673	0.35339	-0.005646	0.04715	-0.17212	-0.01297	0.042572	-0.022583	0.06134	0.29816	-0.001373	-0.035095
